<svg width="22" height="22" viewBox="0 0 22 22" fill="none" xmlns="http://www.w3.org/2000/svg">
<circle cx="11" cy="11" r="9.5" stroke="url(#paint0_linear)"/>
<path d="M15.6004 6.02874L13.3661 5.51312C13.1233 5.45726 12.8741 5.58402 12.7753 5.81175L11.744 8.21795C11.6538 8.42849 11.714 8.67556 11.8923 8.8195L13.1942 9.8851C12.4208 11.5329 11.0694 12.9036 9.38724 13.6921L8.32164 12.3901C8.17555 12.2118 7.93063 12.1517 7.72009 12.2419L5.31389 13.2731C5.08401 13.3741 4.95726 13.6233 5.01311 13.8661L5.52873 16.1004C5.58244 16.3324 5.78868 16.5 6.03145 16.5C11.5335 16.5 16 12.0421 16 6.53146C16 6.29084 15.8346 6.08245 15.6004 6.02874Z" fill="url(#paint1_linear)"/>
<defs>
<linearGradient id="paint0_linear" x1="11" y1="1" x2="11" y2="21" gradientUnits="userSpaceOnUse">
<stop stop-color="#F36558"/>
<stop offset="1" stop-color="#FC6E58"/>
</linearGradient>
<linearGradient id="paint1_linear" x1="10.5" y1="5.5" x2="10.5" y2="16.5" gradientUnits="userSpaceOnUse">
<stop stop-color="#E14F58"/>
<stop offset="0.0001" stop-color="#E25158"/>
<stop offset="1" stop-color="#FD7058"/>
</linearGradient>
</defs>
</svg>
